<mxfile host="app.diagrams.net" modified="2023-08-22T23:33:33.412Z" agent="Mozilla/5.0 (Macintosh; Intel Mac OS X 10_15_7) AppleWebKit/605.1.15 (KHTML, like Gecko) Version/16.5 Safari/605.1.15" etag="y26g3cQLER5sYwMCh-kl" version="21.6.9" type="device">
  <diagram name="Page-1" id="bL2ti3FS8Qn9a3gcwUtS">
    <mxGraphModel dx="2072" dy="1072" grid="1" gridSize="10" guides="1" tooltips="1" connect="1" arrows="1" fold="1" page="1" pageScale="1" pageWidth="850" pageHeight="1100" math="0" shadow="0">
      <root>
        <mxCell id="0" />
        <mxCell id="1" parent="0" />
        <mxCell id="nyXX6pM8MfZBQfrMpn8g-65" value="&lt;font style=&quot;font-size: 20px;&quot;&gt;&lt;b&gt;Device Under Test&lt;/b&gt;&lt;/font&gt;" style="rounded=1;whiteSpace=wrap;html=1;" vertex="1" parent="1">
          <mxGeometry x="605" y="470" width="120" height="100" as="geometry" />
        </mxCell>
        <mxCell id="nyXX6pM8MfZBQfrMpn8g-66" value="" style="endArrow=none;html=1;rounded=0;" edge="1" parent="1">
          <mxGeometry width="50" height="50" relative="1" as="geometry">
            <mxPoint x="420" y="500" as="sourcePoint" />
            <mxPoint x="605" y="500" as="targetPoint" />
          </mxGeometry>
        </mxCell>
        <mxCell id="nyXX6pM8MfZBQfrMpn8g-67" value="VDD Pin" style="text;html=1;strokeColor=none;fillColor=none;align=center;verticalAlign=middle;whiteSpace=wrap;rounded=0;" vertex="1" parent="1">
          <mxGeometry x="545" y="500" width="60" height="30" as="geometry" />
        </mxCell>
        <mxCell id="nyXX6pM8MfZBQfrMpn8g-70" style="edgeStyle=orthogonalEdgeStyle;rounded=0;orthogonalLoop=1;jettySize=auto;html=1;shape=link;" edge="1" parent="1" source="nyXX6pM8MfZBQfrMpn8g-69">
          <mxGeometry relative="1" as="geometry">
            <mxPoint x="435" y="500" as="targetPoint" />
          </mxGeometry>
        </mxCell>
        <mxCell id="nyXX6pM8MfZBQfrMpn8g-71" style="edgeStyle=orthogonalEdgeStyle;rounded=0;orthogonalLoop=1;jettySize=auto;html=1;shape=link;" edge="1" parent="1" source="nyXX6pM8MfZBQfrMpn8g-69">
          <mxGeometry relative="1" as="geometry">
            <mxPoint x="575" y="500" as="targetPoint" />
          </mxGeometry>
        </mxCell>
        <mxCell id="nyXX6pM8MfZBQfrMpn8g-69" value="Shunt Resistor" style="rounded=0;whiteSpace=wrap;html=1;" vertex="1" parent="1">
          <mxGeometry x="455" y="440" width="90" height="30" as="geometry" />
        </mxCell>
        <mxCell id="nyXX6pM8MfZBQfrMpn8g-72" value="" style="endArrow=none;html=1;rounded=0;" edge="1" parent="1">
          <mxGeometry width="50" height="50" relative="1" as="geometry">
            <mxPoint x="445" y="420" as="sourcePoint" />
            <mxPoint x="445" y="460" as="targetPoint" />
          </mxGeometry>
        </mxCell>
        <mxCell id="nyXX6pM8MfZBQfrMpn8g-73" value="" style="endArrow=none;html=1;rounded=0;" edge="1" parent="1">
          <mxGeometry width="50" height="50" relative="1" as="geometry">
            <mxPoint x="565" y="460" as="sourcePoint" />
            <mxPoint x="565" y="420" as="targetPoint" />
            <Array as="points">
              <mxPoint x="565" y="460" />
            </Array>
          </mxGeometry>
        </mxCell>
        <mxCell id="nyXX6pM8MfZBQfrMpn8g-74" value="" style="endArrow=none;html=1;rounded=0;" edge="1" parent="1" source="nyXX6pM8MfZBQfrMpn8g-75">
          <mxGeometry width="50" height="50" relative="1" as="geometry">
            <mxPoint x="445" y="420" as="sourcePoint" />
            <mxPoint x="565" y="420" as="targetPoint" />
          </mxGeometry>
        </mxCell>
        <mxCell id="nyXX6pM8MfZBQfrMpn8g-76" value="" style="endArrow=none;html=1;rounded=0;" edge="1" parent="1" target="nyXX6pM8MfZBQfrMpn8g-75">
          <mxGeometry width="50" height="50" relative="1" as="geometry">
            <mxPoint x="445" y="420" as="sourcePoint" />
            <mxPoint x="565" y="420" as="targetPoint" />
          </mxGeometry>
        </mxCell>
        <mxCell id="nyXX6pM8MfZBQfrMpn8g-75" value="&lt;font style=&quot;font-size: 8px;&quot;&gt;ADC Convertor&lt;/font&gt;" style="ellipse;whiteSpace=wrap;html=1;aspect=fixed;" vertex="1" parent="1">
          <mxGeometry x="465" y="350" width="70" height="70" as="geometry" />
        </mxCell>
      </root>
    </mxGraphModel>
  </diagram>
</mxfile>
